<?xml version="1.0" encoding="UTF-8" standalone="no"?>
<!DOCTYPE svg PUBLIC "-//W3C//DTD SVG 1.1//EN" "http://www.w3.org/Graphics/SVG/1.1/DTD/svg11.dtd">
<svg width="100%" height="100%" viewBox="0 0 1182 189" version="1.1" xmlns="http://www.w3.org/2000/svg" xmlns:xlink="http://www.w3.org/1999/xlink" xml:space="preserve" xmlns:serif="http://www.serif.com/" style="fill-rule:evenodd;clip-rule:evenodd;stroke-linejoin:round;stroke-miterlimit:2;">
    <g transform="matrix(1,0,0,1,-99.8956,-392.999)">
        <g transform="matrix(4.16667,0,0,4.16667,195.825,493.691)">
            <path d="M0,-2.977C0,-8.138 -0.744,-15.631 -10.966,-15.631C-21.683,-15.631 -23.023,-7.989 -23.023,2.779C-23.023,13.547 -21.683,21.189 -10.966,21.189C-1.588,21.189 0.298,14.589 0.298,6.947L-6.847,6.947C-6.847,14.589 -8.733,15.929 -11.313,15.929C-14.389,15.929 -15.878,13.994 -15.878,3.275C-15.878,-6.748 -15.034,-10.371 -11.412,-10.371C-8.187,-10.371 -7.145,-8.138 -7.145,-2.977L0,-2.977ZM2.639,2.779C2.639,13.547 3.979,21.189 14.696,21.189C25.414,21.189 26.754,13.547 26.754,2.779C26.754,-7.989 25.414,-15.631 14.696,-15.631C3.979,-15.631 2.639,-7.989 2.639,2.779M9.784,2.779C9.784,-6.699 10.479,-10.371 14.696,-10.371C18.914,-10.371 19.609,-6.699 19.609,2.779C19.609,12.307 18.914,15.929 14.696,15.929C10.479,15.929 9.784,12.307 9.784,2.779M7.254,-17.02L12.215,-17.02L14.597,-21.238L16.88,-17.02L22.139,-17.02L18.269,-24.166L11.124,-24.166L7.254,-17.02ZM27.994,-14.936L27.994,-9.08L35.734,-9.08L35.734,20.494L42.88,20.494L42.88,-9.08L50.62,-9.08L50.62,-14.936L27.994,-14.936ZM52.867,-14.936L52.867,20.494L73.161,20.494L73.161,14.639L60.012,14.639L60.012,5.111L71.921,5.111L71.921,-0.744L60.012,-0.744L60.012,-9.08L72.665,-9.08L72.665,-14.936L52.867,-14.936ZM87.996,20.494L99.259,20.494C108.737,20.494 111.416,14.837 111.416,2.283C111.416,-8.138 109.63,-14.936 99.706,-14.936L87.996,-14.936L87.996,20.494ZM95.141,-9.676L98.168,-9.676C103.626,-9.676 104.271,-5.557 104.271,2.481C104.271,12.108 103.279,15.234 98.317,15.234L95.141,15.234L95.141,-9.676ZM114.75,-14.936L114.75,20.494L135.044,20.494L135.044,14.639L121.895,14.639L121.895,5.111L133.803,5.111L133.803,-0.744L121.895,-0.744L121.895,-9.08L134.548,-9.08L134.548,-14.936L114.75,-14.936ZM171.81,-2.977C171.81,-8.138 171.066,-15.631 160.844,-15.631C150.127,-15.631 148.787,-7.989 148.787,2.779C148.787,13.547 150.127,21.189 160.844,21.189C170.222,21.189 172.108,14.589 172.108,6.947L164.962,6.947C164.962,14.589 163.077,15.929 160.497,15.929C157.42,15.929 155.932,13.994 155.932,3.275C155.932,-6.748 156.775,-10.371 160.398,-10.371C163.623,-10.371 164.665,-8.138 164.665,-2.977L171.81,-2.977ZM174.91,20.494L182.055,20.494L182.055,4.764L190.391,4.764L190.391,20.494L197.536,20.494L197.536,-14.936L190.391,-14.936L190.391,-1.389L182.055,-1.389L182.055,-14.936L174.91,-14.936L174.91,20.494ZM208.735,-14.936L201.59,-14.936L201.59,20.494L208.735,20.494L208.735,-14.936ZM212.734,-14.936L212.734,20.494L219.284,20.494L219.284,-4.317L219.383,-4.317L228.116,20.494L236.253,20.494L236.253,-14.936L229.704,-14.936L229.704,9.329L229.604,9.329L220.971,-14.936L212.734,-14.936ZM240.148,-14.936L240.148,20.494L260.442,20.494L260.442,14.639L247.293,14.639L247.293,5.111L259.201,5.111L259.201,-0.744L247.293,-0.744L247.293,-9.08L259.945,-9.08L259.945,-14.936L240.148,-14.936Z" style="fill:white;fill-rule:nonzero;"/>
        </g>
    </g>
</svg>
